<?xml version="1.0" encoding="UTF-8" standalone="no"?>
<!-- Created with Inkscape (http://www.inkscape.org/) -->

<svg
   width="1793.8871"
   height="546.75543"
   viewBox="0 0 1793.8871 546.75543"
   version="1.1"
   id="svg1"
   xml:space="preserve"
   sodipodi:docname="darklogo.svg"
   inkscape:version="1.4.2 (f4327f4, 2025-05-13)"
   xmlns:inkscape="http://www.inkscape.org/namespaces/inkscape"
   xmlns:sodipodi="http://sodipodi.sourceforge.net/DTD/sodipodi-0.dtd"
   xmlns="http://www.w3.org/2000/svg"
   xmlns:svg="http://www.w3.org/2000/svg"><sodipodi:namedview
     id="namedview1"
     pagecolor="#505050"
     bordercolor="#eeeeee"
     borderopacity="1"
     inkscape:showpageshadow="0"
     inkscape:pageopacity="0"
     inkscape:pagecheckerboard="0"
     inkscape:deskcolor="#505050"
     inkscape:zoom="0.2438838"
     inkscape:cx="697.05326"
     inkscape:cy="63.554856"
     inkscape:window-width="1920"
     inkscape:window-height="1009"
     inkscape:window-x="-8"
     inkscape:window-y="-8"
     inkscape:window-maximized="1"
     inkscape:current-layer="layer1" /><defs
     id="defs1" /><g
     id="layer1"
     style="opacity:1"
     transform="translate(-77.661651,-228.31137)"><path
       style="font-weight:bold;font-size:192px;-inkscape-font-specification:'sans-serif Bold';letter-spacing:-10.96px;fill:#e15c14;stroke-width:97.0611;stroke-linejoin:bevel;stroke-miterlimit:0;paint-order:stroke fill markers;fill-opacity:1"
       d="m 1837.1545,679.34043 h -149.9593 q 1.4559,24.0226 18.1989,36.76186 16.9249,12.73926 49.683,12.73926 20.7468,0 40.2199,-7.46156 19.4727,-7.46157 30.756,-16.01508 h 7.2796 v 52.59493 q -22.2027,8.91749 -41.8575,12.92125 -19.655,4.00377 -43.4954,4.00377 -61.5124,0 -94.2705,-27.66238 -32.7581,-27.6624 -32.7581,-78.80141 0,-50.59305 30.9382,-80.07533 31.1201,-29.66426 85.171,-29.66426 49.8651,0 74.9797,25.29652 25.1145,25.11453 25.1145,72.43177 z m -65.1522,-38.39976 q -0.5461,-20.56479 -10.1915,-30.93819 -9.6455,-10.37339 -30.0282,-10.37339 -18.927,0 -31.1202,9.82742 -12.1933,9.82742 -13.6492,31.48416 z"
       id="path51" /><path
       id="path50"
       style="font-weight:bold;font-size:192px;-inkscape-font-specification:'sans-serif Bold';letter-spacing:-10.96px;fill:#e15c14;stroke-width:97.0611;stroke-linejoin:bevel;stroke-miterlimit:0;paint-order:stroke fill markers;fill-opacity:1"
       d="m 1545.2849,573.23885 c -8.2502,-4.00376 -16.3186,-7.27957 -24.2046,-9.82742 -7.7648,-2.66918 -17.7744,-4.00377 -30.0283,-4.00377 -11.7687,0 -23.5373,2.54786 -35.3059,7.64356 -11.7687,4.97438 -21.7781,12.0113 -30.0282,21.11077 -8.7355,9.58476 -15.6511,21.11076 -20.7468,34.57797 -4.9745,13.34589 -7.4616,28.69367 -7.4616,46.04333 0,32.51543 7.4615,58.35793 22.3847,77.52747 14.923,19.16955 34.8205,28.75432 59.6925,28.75432 12.8606,0 24.2045,-2.18387 34.032,-6.55162 9.8274,-4.36774 20.3828,-11.16201 31.6662,-20.3828 v 21.29275 h 65.5161 l 0.5148,-257.92772 c -15.8558,-8.07722 -45.1585,-15.53966 -66.5458,-12.1261 z m -28.5715,34.03202 c 4.2462,0 8.9174,0.42464 14.013,1.27392 5.0958,0.84929 9.9488,2.24454 14.5592,4.18576 v 100.27616 c -5.0957,3.63978 -10.9801,6.61228 -17.6528,8.91747 -6.6732,2.18388 -12.9821,3.27581 -18.927,3.27581 -15.2871,0 -26.3885,-4.48907 -33.3042,-13.46721 -6.9155,-9.09947 -10.3732,-23.65862 -10.3732,-43.67745 0,-19.04823 4.307,-33.91069 12.9211,-44.58741 8.6143,-10.79803 21.5356,-16.19705 38.7639,-16.19705 z" /><path
       style="font-weight:bold;font-size:192px;-inkscape-font-specification:'sans-serif Bold';letter-spacing:-10.96px;fill:#e15c14;stroke-width:97.0611;stroke-linejoin:bevel;stroke-miterlimit:0;paint-order:stroke fill markers;fill-opacity:1"
       d="m 1323.6675,716.10229 v -42.58552 q -13.285,1.09194 -28.7543,3.09382 -15.469,1.8199 -23.4765,4.36775 -9.8274,3.09382 -15.1052,9.09947 -5.0957,5.82366 -5.0957,15.4691 0,6.36962 1.092,10.37339 1.0918,4.00377 5.4596,7.64355 4.1859,3.6398 10.0095,5.45969 5.8237,1.6379 18.199,1.6379 9.8274,0 19.8367,-4.00377 10.1914,-4.00376 17.8349,-10.55538 z m 0,31.66615 q -5.2775,4.00377 -13.1031,9.64544 -7.8255,5.64167 -14.7411,8.91748 -9.6456,4.36775 -20.0188,6.36963 -10.3736,2.18387 -22.7488,2.18387 -29.1183,0 -48.7732,-18.01695 -19.6548,-18.01694 -19.6548,-46.04331 0,-22.3847 10.0095,-36.57987 10.0094,-14.19517 28.3903,-22.3847 18.199,-8.18952 45.1335,-11.64732 26.9344,-3.45779 55.8706,-5.0957 v -1.09193 q 0,-16.92501 -13.8313,-23.29464 -13.8311,-6.55162 -40.7656,-6.55162 -16.1969,0 -34.5779,5.82366 -18.3809,5.64167 -26.3884,8.73549 h -6.0058 v -49.31913 q 10.3736,-2.72984 33.6682,-6.36962 23.4766,-3.82178 46.9533,-3.82178 55.8706,0 80.6211,17.28899 24.9327,17.107 24.9327,53.86886 v 139.03989 h -64.9704 z"
       id="path49" /><path
       style="font-weight:bold;font-size:192px;-inkscape-font-specification:'sans-serif Bold';letter-spacing:-10.96px;fill:#e15c14;stroke-width:97.0611;stroke-linejoin:bevel;stroke-miterlimit:0;paint-order:stroke fill markers;fill-opacity:1"
       d="M 1178.4232,769.42518 H 1112.543 V 668.05709 q 0,-12.37527 -1.274,-24.56857 -1.2738,-12.37528 -4.3678,-18.19894 -3.6397,-6.7336 -10.7372,-9.82742 -6.9157,-3.09382 -19.473,-3.09382 -8.9174,0 -18.1989,2.91183 -9.0995,2.91183 -19.8369,9.28146 V 769.42518 H 973.13907 V 486.2497 h 65.51613 v 101.36808 q 17.471,-13.6492 33.4861,-20.92878 16.197,-7.27958 35.8519,-7.27958 33.122,0 51.685,19.29089 18.745,19.29087 18.745,57.69063 z"
       id="path48" /><path
       style="font-weight:bold;font-size:192px;-inkscape-font-specification:'sans-serif Bold';letter-spacing:-10.96px;fill:#e15c14;stroke-width:97.0611;stroke-linejoin:bevel;stroke-miterlimit:0;paint-order:stroke fill markers;fill-opacity:1"
       d="m 962.56665,704.63696 q 0,31.66616 -28.39034,51.13902 -28.39035,19.29087 -77.70952,19.29087 -27.29838,0 -49.5011,-5.0957 -22.20272,-5.0957 -35.66993,-11.28335 v -53.86885 h 6.0057 q 4.91373,3.4578 11.28328,7.64355 6.55168,4.00377 18.38095,8.73549 10.19142,4.18575 23.11265,7.27958 12.92124,2.91183 27.66244,2.91183 19.29089,0 28.57227,-4.18575 9.28149,-4.36776 9.28149,-12.73927 0,-7.46156 -5.45972,-10.73737 -5.45961,-3.4578 -20.7467,-6.55161 -7.27958,-1.63791 -19.83686,-3.45781 -12.37536,-2.00188 -22.56667,-4.73172 -27.84447,-7.27958 -41.31168,-22.56668 -13.46722,-15.4691 -13.46722,-38.39976 0,-29.48229 27.84447,-48.95515 28.02628,-19.65486 76.43552,-19.65486 22.93063,0 43.85946,4.73173 21.11076,4.54974 32.94002,9.82743 v 51.68499 h -5.64164 q -14.55918,-10.00942 -33.30408,-16.19706 -18.56287,-6.36963 -37.67183,-6.36963 -15.83307,0 -26.7524,4.36775 -10.73741,4.36774 -10.73741,12.37528 0,7.27957 4.91374,11.10135 4.91374,3.82178 23.11266,7.64355 10.00939,2.00189 21.4747,4.00377 11.64734,1.81989 23.29469,4.73172 25.84246,6.73361 38.21781,21.29276 12.37525,14.37717 12.37525,36.0339 z"
       id="path47" /><path
       style="font-weight:bold;font-size:192px;-inkscape-font-specification:'sans-serif Bold';letter-spacing:-10.96px;fill:#e15c14;stroke-width:97.0611;stroke-linejoin:bevel;stroke-miterlimit:0;paint-order:stroke fill markers;fill-opacity:1"
       d="m 691.27002,716.10229 v -42.58552 q -13.28518,1.09194 -28.7543,3.09382 -15.46911,1.8199 -23.4766,4.36775 -9.82748,3.09382 -15.10516,9.09947 -5.09572,5.82366 -5.09572,15.4691 0,6.36962 1.09195,10.37339 1.09193,4.00377 5.45967,7.64355 4.18574,3.6398 10.00941,5.45969 5.82367,1.6379 18.19892,1.6379 9.82747,0 19.83686,-4.00377 10.19143,-4.00376 17.83497,-10.55538 z m 0,31.66615 q -5.27769,4.00377 -13.10326,9.64544 -7.82546,5.64167 -14.7411,8.91748 -9.64544,4.36775 -20.0189,6.36963 -10.37334,2.18387 -22.74861,2.18387 -29.11831,0 -48.77316,-18.01695 -19.65485,-18.01694 -19.65485,-46.04331 0,-22.3847 10.00941,-36.57987 10.00942,-14.19517 28.39035,-22.3847 18.19893,-8.18952 45.13332,-11.64732 26.93443,-3.45779 55.87075,-5.0957 v -1.09193 q 0,-16.92501 -13.83116,-23.29464 -13.83117,-6.55162 -40.76559,-6.55162 -16.19709,0 -34.57801,5.82366 -18.38093,5.64167 -26.38847,8.73549 h -6.00565 v -49.31913 q 10.37339,-2.72984 33.66804,-6.36962 23.47664,-3.82178 46.95322,-3.82178 55.87075,0 80.62136,17.28899 24.93252,17.107 24.93252,53.86886 v 139.03989 h -64.97021 z"
       id="path46" /><path
       id="path45"
       style="font-weight:bold;font-size:192px;-inkscape-font-specification:'sans-serif Bold';letter-spacing:-10.96px;fill:#e15c14;stroke-width:97.0611;stroke-linejoin:bevel;stroke-miterlimit:0;paint-order:stroke fill markers;fill-opacity:1"
       d="m 439.72659,558.67971 c -36.0339,0 -64.42424,9.88808 -85.17103,29.66426 -14.07131,13.40911 -22.98905,26.38274 -27.46049,46.34236 16.76313,24.35049 16.66646,64.72795 7.13833,84.34878 5.35498,10.84788 12.7349,20.24177 22.14205,28.1856 21.83872,18.44159 53.26223,27.66239 94.2705,27.66239 15.89374,0 30.39222,-1.3346 43.49546,-4.00377 13.10324,-2.66918 27.05576,-6.97626 41.85756,-12.92124 v -52.59494 h -7.27957 c -7.52223,5.70233 -17.7743,11.04069 -30.75621,16.01507 -12.98191,4.97437 -26.38846,7.46156 -40.21965,7.46156 -21.83873,0 -38.39977,-4.24641 -49.68311,-12.73926 -11.16201,-8.49284 -17.22833,-20.74679 -18.19894,-36.76186 h 149.95926 v -22.93065 c 0,-31.54483 -8.37151,-55.68876 -25.11454,-72.43178 -16.74302,-16.86435 -41.73623,-25.29652 -74.97962,-25.29652 z m -5.27769,40.94761 c 13.58854,0 23.59795,3.4578 30.02825,10.37339 6.43028,6.91559 9.82742,17.22833 10.1914,30.93819 h -84.98904 c 0.9706,-14.43782 5.52035,-24.93254 13.6492,-31.48416 8.12886,-6.55161 18.50225,-9.82742 31.12019,-9.82742 z" /><path
       style="font-weight:bold;font-size:192px;-inkscape-font-specification:'sans-serif Bold';letter-spacing:-10.96px;fill:#e15c14;stroke-width:97.0611;stroke-linejoin:bevel;stroke-miterlimit:0;paint-order:stroke fill markers;fill-opacity:1"
       d="m 309.33414,684.25415 q 0,40.03766 -34.03202,65.15219 -33.85003,24.93255 -92.08662,24.93255 -33.66805,0 -58.78258,-5.82366 -24.932547,-6.00565 -46.771267,-15.10512 V 688.4399 h 7.64355 q 21.656737,17.289 48.409177,26.57045 26.93443,9.28146 51.68498,9.28146 6.36964,0 16.74303,-1.09193 10.3734,-1.09195 16.92502,-3.6398 8.00752,-3.2758 13.10323,-8.18951 5.27769,-4.91372 5.27769,-14.55916 0,-8.91748 -7.64356,-15.2871 -7.46156,-6.55162 -22.02071,-10.00942 -15.2871,-3.63979 -32.39411,-6.7336 -16.92501,-3.27581 -31.84814,-8.18953 -34.21401,-11.10135 -49.319117,-30.02825 -14.92314,-19.10888 -14.92314,-47.31724 0,-37.85379 33.850027,-61.6944 34.03201,-24.0226 87.3549,-24.0226 26.75244,0 52.77693,5.2777 26.20647,5.0957 45.31535,12.92124 v 62.42236 h -7.46156 q -16.37905,-13.10324 -40.21965,-21.83873 -23.65863,-8.91748 -48.40918,-8.91748 -8.73549,0 -17.47098,1.27393 -8.55351,1.09193 -16.56104,4.36774 -7.09759,2.72984 -12.19329,8.37152 -5.0957,5.45968 -5.0957,12.55726 0,10.73738 8.18952,16.56104 8.18953,5.64167 30.9382,10.37339 14.92313,3.09382 28.57233,6.00566 13.8312,2.91182 29.66427,8.00752 31.12018,10.19141 45.86133,27.84439 14.92313,17.47097 14.92313,45.49734 z"
       id="text1" /></g><g
     id="layer2"
     style="opacity:1"
     transform="translate(-77.661651,-228.31137)"><path
       id="path11"
       style="display:inline;opacity:1;fill:#e15c14;fill-opacity:1;stroke:none;stroke-width:6.02481;stroke-linejoin:bevel;stroke-miterlimit:0;stroke-dasharray:none;stroke-opacity:1;paint-order:stroke fill markers"
       d="m 1607.3212,228.74238 a 22.619029,21.626656 78.279467 0 0 -16.7508,25.65006 142.08636,58.128652 5.5083685 0 1 14.5343,1.16071 142.08636,58.128652 5.5083685 0 1 27.0324,3.82409 22.619029,21.626656 78.279467 0 0 0.9523,-12.87959 22.619029,21.626656 78.279467 0 0 -25.7682,-17.75527 z" /><path
       d="m 1605.0449,283.79764 c -0.074,0.024 -0.1417,0.0629 -0.2145,0.0866 -56.2257,18.49879 -108.6341,70.04691 -139.8944,137.22992 -12.5979,27.07506 -21.0844,55.13401 -25.528,82.73762 36.6397,-23.95931 86.1761,-34.1114 135.2175,-27.71176 51.3334,6.69883 96.4376,30.78282 122.0672,65.1793 3.1858,-30.96763 1.6146,-64.39971 -5.4632,-98.51615 -13.3504,-64.34873 -44.3567,-122.43508 -86.0155,-158.84463 -0.06,-0.0507 -0.1107,-0.11083 -0.1689,-0.16092 z"
       style="opacity:1;fill:#27292a;fill-opacity:1;stroke:none;stroke-width:1.52426;stroke-linejoin:bevel;stroke-miterlimit:0;paint-order:stroke fill markers"
       id="path27"
       sodipodi:nodetypes="scscscccss" /><path
       d="m 1631.7515,276.58817 c 41.6589,36.40956 72.6653,94.49588 86.0156,158.84465 7.0777,34.11642 8.6493,67.54848 5.4631,98.51615 a 167.00888,124.81413 3.4349585 0 1 0.5119,0.69336 108.915,114.45785 78.279467 0 1 64.5259,-37.16683 108.915,114.45785 78.279467 0 1 83.2239,13.2851 277.90225,219.02709 7.7065605 0 0 -2.8106,-36.13555 277.90225,219.02709 7.7065605 0 0 -236.9298,-198.03688 z"
       style="opacity:1;fill:#e15c14;fill-opacity:1;stroke:none;stroke-width:1.52426;stroke-linejoin:bevel;stroke-miterlimit:0;paint-order:stroke fill markers"
       id="path26" /><path
       d="m 1468.8659,271.41363 a 277.90225,219.02709 7.7065605 0 0 -194.5476,155.70464 111.40737,119.51355 78.279467 0 1 8.2513,-1.99851 111.40737,119.51355 78.279467 0 1 133.7575,65.78038 167.00888,124.81413 3.4349585 0 1 0.2445,-0.15937 c 4.4439,-27.60365 12.9302,-55.66259 25.5283,-82.73766 31.2602,-67.18302 83.6689,-118.73107 139.8944,-137.22992 a 277.90225,219.02709 7.7065605 0 0 -76.5322,-3.74748 277.90225,219.02709 7.7065605 0 0 -36.5962,4.38788 z"
       style="opacity:1;fill:#e15c14;fill-opacity:1;stroke:none;stroke-width:1.52426;stroke-linejoin:bevel;stroke-miterlimit:0;paint-order:stroke fill markers"
       id="path25" /></g></svg>
