<?xml version="1.0" encoding="UTF-8" standalone="no"?>
<!-- Created with Inkscape (http://www.inkscape.org/) -->

<svg
   width="1920"
   height="1080"
   viewBox="0 0 1920 1080"
   version="1.1"
   id="svg1"
   sodipodi:docname="darkdecoracaolg.svg"
   inkscape:version="1.4.2 (f4327f4, 2025-05-13)"
   xmlns:inkscape="http://www.inkscape.org/namespaces/inkscape"
   xmlns:sodipodi="http://sodipodi.sourceforge.net/DTD/sodipodi-0.dtd"
   xmlns="http://www.w3.org/2000/svg"
   xmlns:svg="http://www.w3.org/2000/svg">
  <sodipodi:namedview
     id="namedview1"
     pagecolor="#505050"
     bordercolor="#eeeeee"
     borderopacity="1"
     inkscape:showpageshadow="0"
     inkscape:pageopacity="0"
     inkscape:pagecheckerboard="0"
     inkscape:deskcolor="#505050"
     inkscape:zoom="0.26418295"
     inkscape:cx="775.97741"
     inkscape:cy="463.69382"
     inkscape:window-width="1920"
     inkscape:window-height="1009"
     inkscape:window-x="-8"
     inkscape:window-y="-8"
     inkscape:window-maximized="1"
     inkscape:current-layer="layer2" />
  <defs
     id="defs1" />
  <g
     id="layer2">
    <path
       style="fill:#0c416f;fill-opacity:1;stroke:none;stroke-width:6.4795;stroke-linecap:square;stroke-linejoin:miter;stroke-dasharray:none;stroke-opacity:1"
       d="m 1931.7697,18.199162 c 0,0 -132.0111,-9.3874604 -180.2523,27.591938 -43.1357,33.065755 -22.5564,116.16841 -65.6921,149.23416 -48.2412,36.97942 -132.0112,-9.38748 -180.2524,27.59194 -43.1357,33.06576 -22.5564,116.16841 -65.6921,149.23417 -48.2412,36.9794 -132.0111,-9.38746 -180.2523,27.59194 -43.1357,33.06576 -22.5564,116.16842 -65.6921,149.23417 -48.2412,36.97942 -132.0112,-9.3875 -180.2524,27.59193 -43.13568,33.06576 -22.55635,116.16842 -65.69203,149.23417 -48.24122,36.97942 -132.01116,-9.38751 -180.25238,27.5919 -43.13569,33.06575 -22.55639,116.16841 -65.69207,149.23417 -48.24122,36.97943 -132.01116,-9.38743 -180.25238,27.592 -43.13568,33.06576 -65.69207,149.23415 -65.69207,149.23415 l 1468.21803,4.2136 z"
       id="path1"
       sodipodi:nodetypes="csssssssssssccc" />
  </g>
</svg>
