<?xml version="1.0" encoding="UTF-8" standalone="no"?>
<!-- Created with Inkscape (http://www.inkscape.org/) -->

<svg
   width="1080"
   height="1920"
   viewBox="0 0 1080 1920"
   version="1.1"
   id="svg1"
   inkscape:export-filename="mareareiamob.png"
   inkscape:export-xdpi="96"
   inkscape:export-ydpi="96"
   inkscape:version="1.4.2 (f4327f4, 2025-05-13)"
   sodipodi:docname="mareareiamobedit.svg"
   xmlns:inkscape="http://www.inkscape.org/namespaces/inkscape"
   xmlns:sodipodi="http://sodipodi.sourceforge.net/DTD/sodipodi-0.dtd"
   xmlns="http://www.w3.org/2000/svg"
   xmlns:svg="http://www.w3.org/2000/svg">
  <sodipodi:namedview
     id="namedview1"
     pagecolor="#ffffff"
     bordercolor="#000000"
     borderopacity="0.25"
     inkscape:showpageshadow="2"
     inkscape:pageopacity="0.0"
     inkscape:pagecheckerboard="false"
     inkscape:deskcolor="#d1d1d1"
     inkscape:document-units="px"
     inkscape:zoom="0.39774756"
     inkscape:cx="123.19372"
     inkscape:cy="1132.6279"
     inkscape:window-width="1920"
     inkscape:window-height="1009"
     inkscape:window-x="-8"
     inkscape:window-y="-8"
     inkscape:window-maximized="1"
     inkscape:current-layer="layer2">
    <inkscape:page
       x="0"
       y="0"
       width="1080"
       height="1920"
       id="page2"
       margin="0"
       bleed="0" />
  </sodipodi:namedview>
  <defs
     id="defs1" />
  <g
     inkscape:groupmode="layer"
     id="layer2"
     inkscape:label="Camada 2">
    <path
       style="fill:#eaf5f2;fill-opacity:1;stroke:none;stroke-width:6.4795;stroke-linecap:square;stroke-linejoin:miter;stroke-dasharray:none;stroke-opacity:1"
       d="m 1460.4059,1201.0956 c 0,0 -101.6821,-84.7102 -162.4378,-82.8621 -54.326,1.6524 -86.149,81.131 -140.4749,82.7835 -60.7558,1.8481 -101.6821,-84.7102 -162.43787,-82.8621 -54.32587,1.6524 -86.14888,81.131 -140.47475,82.7835 -60.75587,1.8481 -101.68206,-84.7102 -162.43793,-82.8621 -54.32597,1.6525 -86.14897,81.1311 -140.47485,82.7835 -60.75587,1.8481 -101.68211,-84.7102 -162.43798,-82.8622 -54.32588,1.6525 -86.14888,81.1312 -140.47475,82.7837 -60.7559,1.8479 -101.68209,-84.7103 -162.437966,-82.8623 -54.325884,1.6525 -86.14890903,81.1311 -140.474782,82.7836 -60.755882,1.8481 -101.682112,-84.7102 -162.438022,-82.8621 -54.32584,1.6524 -140.47472,82.7835 -140.47472,82.7835 l 1235.91165,919.3207 619.96497,-891.9646 z"
       id="path1"
       sodipodi:nodetypes="caaaaaaaaaaac" />
    <path
       style="fill:#e9c46a;fill-opacity:1;stroke:none;stroke-width:6.4795;stroke-linecap:square;stroke-linejoin:miter;stroke-dasharray:none;stroke-opacity:1"
       d="m -339.63238,1293.686 c 0,0 86.1489,-81.1311 140.47473,-82.7835 60.75594,-1.8481 101.682157,84.7101 162.438001,82.8621 54.325903,-1.6525 86.148928,-81.1311 140.474799,-82.7836 60.75589,-1.848 101.68207,84.7102 162.43795,82.8623 54.32589,-1.6525 86.14891,-81.1312 140.47481,-82.7837 60.75585,-1.848 101.68205,84.7103 162.4379,82.8622 54.32589,-1.6524 86.14894,-81.1311 140.47481,-82.7835 60.75587,-1.8481 101.68207,84.7101 162.43793,82.8621 54.32587,-1.6525 86.14898,-81.1311 140.47485,-82.7836 60.7558,-1.8481 101.682,84.7102 162.4378,82.8622 54.3259,-1.6525 86.149,-81.1311 140.4748,-82.7836 60.7559,-1.848 162.438,82.8622 162.438,82.8622 l -285.707,726.0722 -320.74094,101.2801 -911.431042,-106.1765 z"
       id="path1-2"
       sodipodi:nodetypes="caaaaaaaaaaaccccc" />
  </g>
</svg>
