<?xml version="1.0" encoding="UTF-8" standalone="no"?>
<!-- Created with Inkscape (http://www.inkscape.org/) -->

<svg
   width="1920"
   height="1080"
   viewBox="0 0 1920 1080"
   version="1.1"
   id="svg1"
   xmlns="http://www.w3.org/2000/svg"
   xmlns:svg="http://www.w3.org/2000/svg">
  <defs
     id="defs1" />
  <g
     id="layer2">
    <path
       style="fill:#eaf5f2;fill-opacity:1;stroke:none;stroke-width:6.4795;stroke-linecap:square;stroke-linejoin:miter;stroke-dasharray:none;stroke-opacity:1"
       d="m 1931.7697,18.199162 c 0,0 -132.0111,-9.3874604 -180.2523,27.591938 -43.1357,33.065755 -22.5564,116.16841 -65.6921,149.23416 -48.2412,36.97942 -132.0112,-9.38748 -180.2524,27.59194 -43.1357,33.06576 -22.5564,116.16841 -65.6921,149.23417 -48.2412,36.9794 -132.0111,-9.38746 -180.2523,27.59194 -43.1357,33.06576 -22.5564,116.16842 -65.6921,149.23417 -48.2412,36.97942 -132.0112,-9.3875 -180.2524,27.59193 -43.13568,33.06576 -22.55635,116.16842 -65.69203,149.23417 -48.24122,36.97942 -132.01116,-9.38751 -180.25238,27.5919 -43.13569,33.06575 -22.55639,116.16841 -65.69207,149.23417 -48.24122,36.97943 -132.01116,-9.38743 -180.25238,27.592 -43.13568,33.06576 -65.69207,149.23415 -65.69207,149.23415 L 1996.241,1103.7151 1978.6419,17.599102 Z"
       id="path1" />
    <path
       style="fill:#e9c46a;fill-opacity:1;stroke:none;stroke-width:6.4795;stroke-linecap:square;stroke-linejoin:miter;stroke-dasharray:none;stroke-opacity:1"
       d="m 524.60372,1144.5185 c 0,0 22.55639,-116.1684 65.69207,-149.23415 48.24122,-36.97943 132.01116,9.38745 180.25238,-27.592 43.13568,-33.06576 22.55638,-116.16842 65.69207,-149.23417 48.24122,-36.97941 132.01114,9.3875 180.25236,-27.5919 43.1357,-33.06575 22.5564,-116.16841 65.6921,-149.23417 48.2412,-36.9794 132.0111,9.38747 180.2523,-27.59193 43.1357,-33.06576 22.5564,-116.16841 65.6921,-149.23417 48.2412,-36.9794 132.0111,9.38746 180.2523,-27.59194 43.1357,-33.06576 22.5564,-116.16841 65.6921,-149.23417 48.2412,-36.97942 132.0112,9.38748 180.2524,-27.59194 43.1357,-33.06575 22.5564,-116.1684 65.6921,-149.23416 48.2412,-36.979398 180.2523,-27.591938 180.2523,-27.591938 l -9.1592,1025.771438 z"
       id="path1-2" />
  </g>
</svg>
