<?xml version="1.0" encoding="UTF-8" standalone="no"?>
<!-- Created with Inkscape (http://www.inkscape.org/) -->

<svg
   width="1793.8871"
   height="546.75543"
   viewBox="0 0 1793.8871 546.75543"
   version="1.1"
   id="svg1"
   xml:space="preserve"
   sodipodi:docname="logo.svg"
   inkscape:version="1.4.2 (f4327f4, 2025-05-13)"
   xmlns:inkscape="http://www.inkscape.org/namespaces/inkscape"
   xmlns:sodipodi="http://sodipodi.sourceforge.net/DTD/sodipodi-0.dtd"
   xmlns="http://www.w3.org/2000/svg"
   xmlns:svg="http://www.w3.org/2000/svg"><sodipodi:namedview
     id="namedview1"
     pagecolor="#505050"
     bordercolor="#eeeeee"
     borderopacity="1"
     inkscape:showpageshadow="0"
     inkscape:pageopacity="0"
     inkscape:pagecheckerboard="0"
     inkscape:deskcolor="#505050"
     inkscape:zoom="0.17245189"
     inkscape:cx="1884.5836"
     inkscape:cy="-432.00455"
     inkscape:window-width="1920"
     inkscape:window-height="1009"
     inkscape:window-x="-8"
     inkscape:window-y="-8"
     inkscape:window-maximized="1"
     inkscape:current-layer="layer1" /><defs
     id="defs1" /><g
     id="layer1"
     style="opacity:1"
     transform="translate(-77.661651,-228.31137)"><path
       style="font-weight:bold;font-size:192px;-inkscape-font-specification:'sans-serif Bold';letter-spacing:-10.96px;fill:#f4f5f5;fill-opacity:1;stroke-width:97.0611;stroke-linejoin:bevel;stroke-miterlimit:0;paint-order:stroke fill markers"
       d="m 1837.1545,679.34043 h -149.9593 c 0.9706,16.01507 7.0369,28.26902 18.1989,36.76186 11.2833,8.49284 27.8443,12.73926 49.683,12.73926 13.8312,0 27.2378,-2.48719 40.2199,-7.46156 12.9818,-4.97438 23.2338,-10.31274 30.756,-16.01508 h 7.2796 v 52.59493 c -14.8018,5.94499 -28.7543,10.25208 -41.8575,12.92125 -13.1033,2.66918 -27.6018,4.00377 -43.4954,4.00377 -41.0083,0 -72.4318,-9.22079 -94.2705,-27.66238 -21.8387,-18.4416 -32.7581,-44.70874 -32.7581,-78.80141 0,-33.7287 10.3127,-60.42048 30.9382,-80.07533 20.7467,-19.77617 49.1371,-29.66426 85.171,-29.66426 33.2434,0 58.2366,8.43217 74.9797,25.29652 16.743,16.74302 25.1145,40.88694 25.1145,72.43177 z m -65.1522,-38.39976 c -0.3641,-13.70986 -3.7612,-24.02259 -10.1915,-30.93819 -6.4303,-6.91559 -16.4397,-10.37339 -30.0282,-10.37339 -12.618,0 -22.9914,3.27581 -31.1202,9.82742 -8.1289,6.55161 -12.6786,17.04633 -13.6492,31.48416 z"
       id="path51"
       sodipodi:nodetypes="cccsscccsssscscsccssscc" /><path
       id="path50"
       style="font-weight:bold;font-size:192px;-inkscape-font-specification:'sans-serif Bold';letter-spacing:-10.96px;fill:#f4f5f5;fill-opacity:1;stroke-width:97.0611;stroke-linejoin:bevel;stroke-miterlimit:0;paint-order:stroke fill markers"
       d="m 1545.2849,573.23885 c -8.2502,-4.00376 -16.3186,-7.27957 -24.2046,-9.82742 -7.7648,-2.66918 -17.7744,-4.00377 -30.0283,-4.00377 -11.7687,0 -23.5373,2.54786 -35.3059,7.64356 -11.7687,4.97438 -21.7781,12.0113 -30.0282,21.11077 -8.7355,9.58476 -15.6511,21.11076 -20.7468,34.57797 -4.9745,13.34589 -7.4616,28.69367 -7.4616,46.04333 0,32.51543 7.4615,58.35793 22.3847,77.52747 14.923,19.16955 34.8205,28.75432 59.6925,28.75432 12.8606,0 24.2045,-2.18387 34.032,-6.55162 9.8274,-4.36774 20.3828,-11.16201 31.6662,-20.3828 v 21.29275 h 65.5161 l 0.5148,-257.92772 c -15.8558,-8.07722 -45.1585,-15.53966 -66.5458,-12.1261 z m -28.5715,34.03202 c 4.2462,0 8.9174,0.42464 14.013,1.27392 5.0958,0.84929 9.9488,2.24454 14.5592,4.18576 v 100.27616 c -5.0957,3.63978 -10.9801,6.61228 -17.6528,8.91747 -6.6732,2.18388 -12.9821,3.27581 -18.927,3.27581 -15.2871,0 -26.3885,-4.48907 -33.3042,-13.46721 -6.9155,-9.09947 -10.3732,-23.65862 -10.3732,-43.67745 0,-19.04823 4.307,-33.91069 12.9211,-44.58741 8.6143,-10.79803 21.5356,-16.19705 38.7639,-16.19705 z"
       sodipodi:nodetypes="ccscccssssccccccsscccscscs" /><path
       style="font-weight:bold;font-size:192px;-inkscape-font-specification:'sans-serif Bold';letter-spacing:-10.96px;fill:#f4f5f5;fill-opacity:1;stroke-width:97.0611;stroke-linejoin:bevel;stroke-miterlimit:0;paint-order:stroke fill markers"
       d="m 1323.6675,716.10229 v -42.58552 c -8.8567,0.72796 -18.4414,1.75923 -28.7543,3.09382 -10.3127,1.21327 -18.1382,2.66918 -23.4765,4.36775 -6.5516,2.06255 -11.5867,5.0957 -15.1052,9.09947 -3.3971,3.88244 -5.0957,9.03881 -5.0957,15.4691 0,4.24641 0.364,7.70421 1.092,10.37339 0.7279,2.66918 2.5477,5.21703 5.4596,7.64355 2.7906,2.42653 6.1271,4.24643 10.0095,5.45969 3.8825,1.09193 9.9488,1.6379 18.199,1.6379 6.5516,0 13.1638,-1.33459 19.8367,-4.00377 6.7943,-2.66917 12.7392,-6.18763 17.8349,-10.55538 z m 0,31.66615 c -3.5183,2.66918 -7.886,5.88433 -13.1031,9.64544 -5.217,3.76111 -10.1307,6.73361 -14.7411,8.91748 -6.4304,2.91183 -13.1033,5.03504 -20.0188,6.36963 -6.9157,1.45591 -14.4987,2.18387 -22.7488,2.18387 -19.4122,0 -35.6699,-6.00565 -48.7732,-18.01695 -13.1032,-12.01129 -19.6548,-27.35906 -19.6548,-46.04331 0,-14.92313 3.3365,-27.11642 10.0095,-36.57987 6.6729,-9.46345 16.1364,-16.92501 28.3903,-22.3847 12.1327,-5.45968 27.1772,-9.34212 45.1335,-11.64732 17.9563,-2.30519 36.5798,-4.00376 55.8706,-5.0957 v -1.09193 c 0,-11.28334 -4.6104,-19.04822 -13.8313,-23.29464 -9.2207,-4.36775 -22.8093,-6.55162 -40.7656,-6.55162 -10.7979,0 -22.3239,1.94122 -34.5779,5.82366 -12.2539,3.76111 -21.0501,6.67294 -26.3884,8.73549 h -6.0058 v -49.31913 c 6.9157,-1.81989 18.1385,-3.9431 33.6682,-6.36962 15.6511,-2.54785 31.3022,-3.82178 46.9533,-3.82178 37.2471,0 64.1208,5.763 80.6211,17.28899 16.6218,11.40467 24.9327,29.36095 24.9327,53.86886 v 139.03989 h -64.9704 z"
       id="path49"
       sodipodi:nodetypes="cccccssccscccsccsssscscscscccccscsccc" /><path
       style="font-weight:bold;font-size:192px;-inkscape-font-specification:'sans-serif Bold';letter-spacing:-10.96px;fill:#f4f5f5;fill-opacity:1;stroke-width:97.0611;stroke-linejoin:bevel;stroke-miterlimit:0;paint-order:stroke fill markers"
       d="M 1178.4232,769.42518 H 1112.543 V 668.05709 c 0,-8.25018 -0.4247,-16.4397 -1.274,-24.56857 -0.8492,-8.25019 -2.3051,-14.3165 -4.3678,-18.19894 -2.4265,-4.48907 -6.0055,-7.76487 -10.7372,-9.82742 -4.6105,-2.06255 -11.1015,-3.09382 -19.473,-3.09382 -5.9449,0 -12.0112,0.97061 -18.1989,2.91183 -6.0663,1.94122 -12.6786,5.03504 -19.8369,9.28146 V 769.42518 H 973.13907 V 486.2497 h 65.51613 v 101.36808 c 11.6473,-9.09947 22.8094,-16.07573 33.4861,-20.92878 10.798,-4.85305 22.7486,-7.27958 35.8519,-7.27958 22.0813,0 39.3097,6.4303 51.685,19.29089 12.4967,12.86058 18.745,32.09079 18.745,57.69063 z"
       id="path48"
       sodipodi:nodetypes="ccscccsccccccccscsc" /><path
       style="font-weight:bold;font-size:192px;-inkscape-font-specification:'sans-serif Bold';letter-spacing:-10.96px;fill:#f4f5f5;fill-opacity:1;stroke-width:97.0611;stroke-linejoin:bevel;stroke-miterlimit:0;paint-order:stroke fill markers"
       d="m 962.56665,704.63696 c 0,21.11077 -9.46345,38.15711 -28.39034,51.13902 -18.9269,12.86058 -44.83007,19.29087 -77.70952,19.29087 -18.19892,0 -34.69929,-1.69857 -49.5011,-5.0957 -14.80181,-3.39713 -26.69179,-7.15825 -35.66993,-11.28335 v -53.86885 h 6.0057 c 3.27582,2.3052 7.03691,4.85305 11.28328,7.64355 4.36779,2.66918 10.49477,5.58101 18.38095,8.73549 6.79428,2.7905 14.4985,5.21703 23.11265,7.27958 8.61416,1.94122 17.83497,2.91183 27.66244,2.91183 12.86059,0 22.38468,-1.39525 28.57227,-4.18575 6.18766,-2.91184 9.28149,-7.15826 9.28149,-12.73927 0,-4.97437 -1.81991,-8.5535 -5.45972,-10.73737 -3.63974,-2.3052 -10.55531,-4.48907 -20.7467,-6.55161 -4.85305,-1.09194 -11.46534,-2.24454 -19.83686,-3.45781 -8.25024,-1.33459 -15.77246,-2.91183 -22.56667,-4.73172 -18.56298,-4.85305 -32.33354,-12.37528 -41.31168,-22.56668 -8.97815,-10.31273 -13.46722,-23.11265 -13.46722,-38.39976 0,-19.65486 9.28149,-35.97324 27.84447,-48.95515 18.68419,-13.10324 44.16269,-19.65486 76.43552,-19.65486 15.28709,0 29.90691,1.57724 43.85946,4.73173 14.07384,3.03316 25.05385,6.30897 32.94002,9.82743 v 51.68499 h -5.64164 c -9.70612,-6.67295 -20.80748,-12.07197 -33.30408,-16.19706 -12.37525,-4.24642 -24.93252,-6.36963 -37.67183,-6.36963 -10.55538,0 -19.47285,1.45592 -26.7524,4.36775 -7.15827,2.91183 -10.73741,7.03692 -10.73741,12.37528 0,4.85305 1.63791,8.5535 4.91374,11.10135 3.27583,2.54785 10.98005,5.0957 23.11266,7.64355 6.67293,1.33459 13.83116,2.66918 21.4747,4.00377 7.76489,1.21326 15.52979,2.7905 23.29469,4.73172 17.22831,4.48907 29.96758,11.58666 38.21781,21.29276 8.25017,9.58478 12.37525,21.59608 12.37525,36.0339 z"
       id="path47"
       sodipodi:nodetypes="scssccccccscscccccscscccccscssccccs" /><path
       style="font-weight:bold;font-size:192px;-inkscape-font-specification:'sans-serif Bold';letter-spacing:-10.96px;fill:#f4f5f5;fill-opacity:1;stroke-width:97.0611;stroke-linejoin:bevel;stroke-miterlimit:0;paint-order:stroke fill markers"
       d="m 691.27002,716.10229 v -42.58552 c -8.85679,0.72796 -18.44155,1.75923 -28.7543,3.09382 -10.31274,1.21327 -18.13827,2.66918 -23.4766,4.36775 -6.55165,2.06255 -11.58671,5.0957 -15.10516,9.09947 -3.39715,3.88244 -5.09572,9.03881 -5.09572,15.4691 0,4.24641 0.36398,7.70421 1.09195,10.37339 0.72795,2.66918 2.54784,5.21703 5.45967,7.64355 2.79049,2.42653 6.12696,4.24643 10.00941,5.45969 3.88245,1.09193 9.94875,1.6379 18.19892,1.6379 6.55165,0 13.16393,-1.33459 19.83686,-4.00377 6.79429,-2.66917 12.73928,-6.18763 17.83497,-10.55538 z m 0,31.66615 c -3.51846,2.66918 -7.88621,5.88433 -13.10326,9.64544 -5.21697,3.76111 -10.13067,6.73361 -14.7411,8.91748 -6.43029,2.91183 -13.10326,5.03504 -20.0189,6.36963 -6.91556,1.45591 -14.49843,2.18387 -22.74861,2.18387 -19.41221,0 -35.66993,-6.00565 -48.77316,-18.01695 -13.10323,-12.01129 -19.65485,-27.35906 -19.65485,-46.04331 0,-14.92313 3.33647,-27.11642 10.00941,-36.57987 6.67295,-9.46345 16.1364,-16.92501 28.39035,-22.3847 12.13262,-5.45968 27.17706,-9.34212 45.13332,-11.64732 17.95629,-2.30519 36.57987,-4.00376 55.87075,-5.0957 v -1.09193 c 0,-11.28334 -4.61039,-19.04822 -13.83116,-23.29464 -9.22078,-4.36775 -22.80931,-6.55162 -40.76559,-6.55162 -10.79806,0 -22.32406,1.94122 -34.57801,5.82366 -12.25395,3.76111 -21.05011,6.67294 -26.38847,8.73549 h -6.00565 v -49.31913 c 6.91559,-1.81989 18.13827,-3.9431 33.66804,-6.36962 15.65109,-2.54785 31.30217,-3.82178 46.95322,-3.82178 37.24717,0 64.12095,5.763 80.62136,17.28899 16.62168,11.40467 24.93252,29.36095 24.93252,53.86886 v 139.03989 h -64.97021 z"
       id="path46"
       sodipodi:nodetypes="cccccssccscccsccsssscscscscccccscsccc" /><path
       id="path45"
       style="font-weight:bold;font-size:192px;-inkscape-font-specification:'sans-serif Bold';letter-spacing:-10.96px;fill:#f4f5f5;fill-opacity:1;stroke-width:97.0611;stroke-linejoin:bevel;stroke-miterlimit:0;paint-order:stroke fill markers"
       d="m 439.72659,558.67971 c -36.0339,0 -64.42424,9.88808 -85.17103,29.66426 -14.07131,13.40911 -22.98905,26.38274 -27.46049,46.34236 16.76313,24.35049 16.66646,64.72795 7.13833,84.34878 5.35498,10.84788 12.7349,20.24177 22.14205,28.1856 21.83872,18.44159 53.26223,27.66239 94.2705,27.66239 15.89374,0 30.39222,-1.3346 43.49546,-4.00377 13.10324,-2.66918 27.05576,-6.97626 41.85756,-12.92124 v -52.59494 h -7.27957 c -7.52223,5.70233 -17.7743,11.04069 -30.75621,16.01507 -12.98191,4.97437 -26.38846,7.46156 -40.21965,7.46156 -21.83873,0 -38.39977,-4.24641 -49.68311,-12.73926 -11.16201,-8.49284 -17.22833,-20.74679 -18.19894,-36.76186 h 149.95926 v -22.93065 c 0,-31.54483 -8.37151,-55.68876 -25.11454,-72.43178 -16.74302,-16.86435 -41.73623,-25.29652 -74.97962,-25.29652 z m -5.27769,40.94761 c 13.58854,0 23.59795,3.4578 30.02825,10.37339 6.43028,6.91559 9.82742,17.22833 10.1914,30.93819 h -84.98904 c 0.9706,-14.43782 5.52035,-24.93254 13.6492,-31.48416 8.12886,-6.55161 18.50225,-9.82742 31.12019,-9.82742 z"
       sodipodi:nodetypes="scccssscccsscccscsssccss" /><path
       style="font-weight:bold;font-size:192px;-inkscape-font-specification:'sans-serif Bold';letter-spacing:-10.96px;fill:#f4f5f5;fill-opacity:1;stroke-width:97.0611;stroke-linejoin:bevel;stroke-miterlimit:0;paint-order:stroke fill markers"
       d="m 309.33414,684.25415 c 0,26.69177 -11.34401,48.40917 -34.03202,65.15219 -22.56669,16.6217 -53.26223,24.93255 -92.08662,24.93255 -22.44537,0 -42.03956,-1.94122 -58.78258,-5.82366 -16.6217,-4.00377 -32.21212,-9.03881 -46.771267,-15.10512 V 688.4399 h 7.64355 c 14.437825,11.526 30.574217,20.38282 48.409177,26.57045 17.95629,6.18764 35.18461,9.28146 51.68498,9.28146 4.24643,0 9.82744,-0.36398 16.74303,-1.09193 6.9156,-0.72797 12.55727,-1.94123 16.92502,-3.6398 5.33835,-2.18387 9.70609,-4.9137 13.10323,-8.18951 3.51846,-3.27581 5.27769,-8.12887 5.27769,-14.55916 0,-5.94499 -2.54785,-11.04069 -7.64356,-15.2871 -4.97437,-4.36775 -12.31461,-7.70422 -22.02071,-10.00942 -10.1914,-2.42653 -20.98944,-4.67106 -32.39411,-6.7336 -11.28334,-2.18387 -21.89939,-4.91372 -31.84814,-8.18953 -22.80934,-7.4009 -39.24905,-17.41032 -49.319117,-30.02825 -9.94876,-12.73925 -14.92314,-28.51167 -14.92314,-47.31724 0,-25.23586 11.283342,-45.80066 33.850027,-61.6944 22.68801,-16.01507 51.80631,-24.0226 87.3549,-24.0226 17.83496,0 35.42727,1.75923 52.77693,5.2777 17.47098,3.39713 32.5761,7.70421 45.31535,12.92124 v 62.42236 h -7.46156 c -10.91937,-8.73549 -24.32592,-16.01507 -40.21965,-21.83873 -15.77242,-5.94499 -31.90881,-8.91748 -48.40918,-8.91748 -5.82366,0 -11.64732,0.42464 -17.47098,1.27393 -5.70234,0.72795 -11.22269,2.18387 -16.56104,4.36774 -4.73173,1.81989 -8.79616,4.6104 -12.19329,8.37152 -3.39713,3.63979 -5.0957,7.82554 -5.0957,12.55726 0,7.15825 2.72984,12.6786 8.18952,16.56104 5.45969,3.76111 15.77242,7.21891 30.9382,10.37339 9.94875,2.06255 19.47286,4.06443 28.57233,6.00566 9.2208,1.94121 19.10889,4.61039 29.66427,8.00752 20.74679,6.79427 36.0339,16.07574 45.86133,27.84439 9.94875,11.64731 14.92313,26.81309 14.92313,45.49734 z"
       id="text1"
       sodipodi:nodetypes="scscccccssccscccccscscccccscccscccccs" /></g><g
     id="layer2"
     style="opacity:1"
     transform="translate(-77.661651,-228.31137)"><path
       id="path11"
       style="display:inline;opacity:1;fill:#f4f5f5;fill-opacity:1;stroke:none;stroke-width:6.02481;stroke-linejoin:bevel;stroke-miterlimit:0;stroke-dasharray:none;stroke-opacity:1;paint-order:stroke fill markers"
       d="m 1607.3212,228.74238 c -11.3663,2.3565 -18.7595,13.67762 -16.7508,25.65006 4.8414,0.28401 9.6925,0.67143 14.5343,1.16071 9.1193,0.92262 18.1723,2.20328 27.0324,3.82409 1.5181,-4.08205 1.8492,-8.55906 0.9523,-12.87959 -2.5372,-12.23096 -14.0736,-20.18 -25.7682,-17.75527 z"
       sodipodi:nodetypes="sccccs" /><path
       d="m 1605.0449,283.79764 c -0.074,0.024 -0.1417,0.0629 -0.2145,0.0866 -56.2257,18.49879 -108.6341,70.04691 -139.8944,137.22992 -12.5979,27.07506 -21.0844,55.13401 -25.528,82.73762 a 167.00888,124.81413 3.4349585 0 1 135.2175,-27.71176 167.00888,124.81413 3.4349585 0 1 122.0672,65.1793 c 3.1858,-30.96763 1.6146,-64.39971 -5.4632,-98.51615 -13.3504,-64.34873 -44.3567,-122.43508 -86.0155,-158.84463 -0.06,-0.0507 -0.1107,-0.11083 -0.1689,-0.16092 z"
       style="opacity:1;fill:#e15c14;fill-opacity:1;stroke:none;stroke-width:1.52426;stroke-linejoin:bevel;stroke-miterlimit:0;paint-order:stroke fill markers"
       id="path27" /><path
       d="m 1631.7515,276.58817 c 41.6589,36.40956 72.6653,94.49588 86.0156,158.84465 7.0777,34.11642 8.6493,67.54848 5.4631,98.51615 0.1716,0.23075 0.3422,0.46187 0.5119,0.69336 16.6839,-18.86698 39.408,-31.95602 64.5259,-37.16683 28.7091,-5.95581 58.4984,-1.20052 83.2239,13.2851 0.3072,-12.02296 -0.6328,-24.10882 -2.8106,-36.13555 -17.8559,-97.9065 -114.5096,-178.69417 -236.9298,-198.03688 z"
       style="opacity:1;fill:#f4f5f5;fill-opacity:1;stroke:none;stroke-width:1.52426;stroke-linejoin:bevel;stroke-miterlimit:0;paint-order:stroke fill markers"
       id="path26"
       sodipodi:nodetypes="ccccsccc" /><path
       d="m 1468.8659,271.41363 c -98.434,17.41393 -173.257,77.29798 -194.5476,155.70464 2.727,-0.75697 5.4792,-1.42356 8.2513,-1.99851 56.5962,-11.74191 112.9145,15.9548 133.7575,65.78038 l 0.2445,-0.15937 c 4.4439,-27.60365 12.9302,-55.66259 25.5283,-82.73766 31.2602,-67.18302 83.6689,-118.73107 139.8944,-137.22992 -25.3955,-4.05409 -51.1521,-5.31529 -76.5322,-3.74748 -12.3622,0.79703 -24.5888,2.26301 -36.5962,4.38788 z"
       style="opacity:1;fill:#f4f5f5;fill-opacity:1;stroke:none;stroke-width:1.52426;stroke-linejoin:bevel;stroke-miterlimit:0;paint-order:stroke fill markers"
       id="path25"
       sodipodi:nodetypes="sccccsccss" /></g></svg>
