<?xml version="1.0" encoding="UTF-8" standalone="no"?>
<!-- Created with Inkscape (http://www.inkscape.org/) -->

<svg
   width="1764.7852"
   height="424.2832"
   viewBox="0 0 1764.7852 424.2832"
   version="1.1"
   id="svg1"
   inkscape:export-filename="logo.svg"
   inkscape:export-xdpi="96"
   inkscape:export-ydpi="96"
   inkscape:version="1.4.2 (f4327f4, 2025-05-13)"
   sodipodi:docname="documento-1.svg"
   xmlns:inkscape="http://www.inkscape.org/namespaces/inkscape"
   xmlns:sodipodi="http://sodipodi.sourceforge.net/DTD/sodipodi-0.dtd"
   xmlns="http://www.w3.org/2000/svg"
   xmlns:svg="http://www.w3.org/2000/svg">
  <sodipodi:namedview
     id="namedview1"
     pagecolor="#505050"
     bordercolor="#eeeeee"
     borderopacity="1"
     inkscape:showpageshadow="0"
     inkscape:pageopacity="0"
     inkscape:pagecheckerboard="0"
     inkscape:deskcolor="#505050"
     inkscape:document-units="px"
     inkscape:zoom="0.35355339"
     inkscape:cx="902.26825"
     inkscape:cy="487.90368"
     inkscape:window-width="1920"
     inkscape:window-height="1009"
     inkscape:window-x="-8"
     inkscape:window-y="-8"
     inkscape:window-maximized="1"
     inkscape:current-layer="layer1">
    <inkscape:page
       x="0"
       y="0"
       width="1764.7852"
       height="424.2832"
       id="page2"
       margin="0"
       bleed="0" />
  </sodipodi:namedview>
  <defs
     id="defs1" />
  <g
     inkscape:label="Camada 1"
     inkscape:groupmode="layer"
     id="layer1"
     transform="translate(-87.021482,-300.75)">
    <path
       id="path8"
       style="fill:#ffffff;stroke-width:22.883;stroke-linejoin:bevel;stroke-miterlimit:0"
       d="m 476.25,300.75 a 43.5,31 0 0 0 -43.5,31 43.5,31 0 0 0 2.51172,10.38281 c 26.48885,-3.78526 55.02502,-7.08645 84.47656,-9.67773 a 43.5,31 0 0 0 0.0117,-0.70508 43.5,31 0 0 0 -43.5,-31 z" />
    <path
       id="path9"
       style="font-weight:bold;font-size:192px;font-family:'Odin Rounded';-inkscape-font-specification:'Odin Rounded Bold';letter-spacing:-10.96px;fill:#ffffff;stroke-width:63.022;stroke-linejoin:bevel;stroke-miterlimit:0"
       d="m 688.54688,337.98438 c -117.31697,-3.04537 -253.45676,12.24926 -333.61329,30.96289 -80.7006,18.84067 -156.71718,59.15436 -177.04297,71.05859 -60.53459,35.45337 -81.347651,63.31507 -81.347651,98.89453 0,47.062 37.539871,67.68252 68.738281,76.67188 0.52879,0.5288 1.59035,0.5332 2.11914,0.5332 17.97874,4.23029 40.7174,15.33229 43.36133,21.67773 0,5.28787 -1.59001,10.04705 -5.82031,14.27735 -6.34543,7.40301 -17.44882,11.10742 -31.19727,11.10742 -10.04694,0 -23.26343,-3.70303 -29.08008,-13.75 -5.81665,-10.04695 -16.39497,-15.86328 -26.9707,-15.86328 -5.28786,0 -10.57686,1.58458 -15.33594,4.22851 -10.046938,5.81665 -15.335936,15.86373 -15.335936,26.43946 0,5.2879 1.588472,11.10224 4.232422,15.86132 15.863594,27.4969 47.590314,44.94922 82.490234,44.94922 31.19841,0 58.16434,-11.10534 76.67188,-31.19922 14.27723,-15.33481 21.68359,-35.42954 21.68359,-55.52343 v -5.81446 c -1.58636,-17.97875 -11.63304,-43.36067 -52.34961,-62.92578 -16.92116,-7.93179 -33.31319,-12.16313 -38.07227,-13.2207 -23.26658,-6.87423 -23.26953,-13.74771 -23.26953,-17.44922 0,-1.78288 -2.03608,-21.50787 30.10547,-41.93555 24.81752,-15.77289 101.33159,-57.64743 184.57813,-79.22851 59.44682,-15.41115 130.61801,-27.99975 225.97656,-29.66602 36.4507,-0.63691 148.65525,-3.37087 203.69531,18.26172 82.30673,32.34929 -73.92929,25.68843 -69.16406,132.56836 2.09623,47.0153 37.54179,67.68252 68.74023,76.67188 0.52873,0.5288 1.58456,0.5332 2.11328,0.5332 17.97879,4.23029 40.71746,15.33229 43.36133,21.67773 0,5.28787 -1.58613,10.04705 -5.8164,14.27735 -6.34541,7.40301 -17.44887,11.10742 -31.19727,11.10742 -10.04695,0 -23.26925,-3.70306 -29.08594,-13.75 -5.81657,-10.04695 -16.38916,-15.86328 -26.96484,-15.86328 -5.28785,0 -10.57683,1.58458 -15.33594,4.22851 -10.04696,5.81665 -15.33594,15.86373 -15.33594,26.43946 0,5.2879 1.59041,11.10224 4.23438,15.86132 15.86353,27.4969 47.5883,44.94922 82.48828,44.94922 31.19833,0 58.16632,-11.10534 76.67383,-31.19922 14.27723,-15.33481 21.68164,-35.42954 21.68164,-55.52343 v -5.81446 c -1.58629,-17.97875 -11.63306,-43.36067 -52.34961,-62.92578 -16.9211,-7.93179 -33.31316,-12.16313 -38.07226,-13.2207 -101.16635,-51.16335 95.71717,-80.54942 90.48828,-139.28711 -4.86478,-54.64734 -103.35882,-76.03276 -220.67578,-79.07812 z m 263.39648,16.89843 c -16.9212,0 -30.66992,13.74876 -30.66992,30.66992 v 308.81055 c 0,16.92117 13.74872,30.66992 30.66992,30.66992 16.9211,0 30.66992,-13.74875 30.66992,-30.66992 v -154.4043 h 37.01372 c 23.7955,0 39.1316,6.87315 48.121,21.1504 6.8741,11.63331 7.4024,24.32524 7.4024,25.38281 v 107.87109 c 0,16.92117 13.7487,30.66992 30.6699,30.66992 17.4499,0 31.1973,-13.74875 31.1973,-30.66992 V 586.49219 c 0,-3.17271 -0.5274,-28.55574 -14.8047,-53.9375 -19.565,-34.89991 -56.0526,-54.46485 -102.5859,-54.46485 h -37.01372 v -92.53711 c 0,-16.92116 -13.74882,-30.66992 -30.66992,-30.66992 z m 640.80274,0 c -16.9211,0 -30.6699,13.74876 -30.6699,30.66992 v 109.45899 c -17.9788,-10.57573 -39.1314,-16.92188 -61.8692,-16.92188 -67.6847,0 -123.207,55.52287 -123.207,123.73633 0,67.68468 55.5223,123.20703 123.207,123.20703 23.7955,0 46.0042,-6.874 64.5118,-17.97851 4.759,10.57573 15.8652,17.97851 28.0273,17.97851 17.4499,0 31.1973,-13.74875 31.1973,-30.66992 V 385.55273 c 0,-16.92116 -13.7474,-30.66992 -31.1973,-30.66992 z M 392.08984,478.08984 c -59.2241,0 -107.87304,54.99356 -107.87304,123.20704 0,32.78476 8.98949,61.86908 26.43945,84.07812 19.03631,23.79539 47.06237,37.54254 79.31836,39.12891 2.11514,0.52878 5.2873,0.52929 9.51758,0.52929 14.80603,0 41.24519,-2.64327 66.62695,-19.56445 8.98938,-5.81665 14.27734,-16.39251 14.27734,-26.43945 0,-5.81665 -1.5856,-11.6335 -5.2871,-16.39258 -5.81667,-8.98938 -15.86323,-13.74805 -25.91016,-13.74805 -5.81666,0 -11.63401,1.58509 -16.92188,4.75781 -13.21966,9.51816 -28.02523,9.51954 -35.95703,9.51954 h -3.17383 c -26.96812,-1.05757 -38.6008,-19.03586 -43.88867,-35.95704 h 120.03516 c 16.92117,0 30.66992,-14.27804 30.66992,-31.19921 0,-31.72719 -10.57603,-61.33929 -30.66992,-83.01954 -20.09388,-22.73782 -47.59108,-34.90039 -77.20313,-34.90039 z m 1351.84566,0 c -59.2241,0 -107.873,54.99356 -107.873,123.20704 0,32.78476 8.9895,61.86908 26.4395,84.07812 19.0363,23.79539 47.0623,37.54254 79.3183,39.12891 2.1152,0.52878 5.2874,0.52929 9.5176,0.52929 14.8061,0 41.2451,-2.64327 66.6269,-19.56445 8.9894,-5.81665 14.2774,-16.39251 14.2774,-26.43945 0,-5.81665 -1.5857,-11.6335 -5.2871,-16.39258 -5.8167,-8.98938 -15.8652,-13.74805 -25.9121,-13.74805 -5.8167,0 -11.6321,1.58509 -16.92,4.75781 -13.2197,9.51816 -28.027,9.51954 -35.9589,9.51954 h -3.1719 c -26.9681,-1.05757 -38.6009,-19.03586 -43.8887,-35.95704 h 120.0332 c 16.9211,0 30.6699,-14.27804 30.6699,-31.19921 0,-31.72719 -10.576,-61.33929 -30.6699,-83.01954 -20.0939,-22.73782 -47.5892,-34.90039 -77.2012,-34.90039 z m -1134.02925,0.5293 c -4.75901,0 -8.98893,5.2e-4 -13.74805,0.5293 -28.55446,2.64395 -54.46572,13.7473 -75.61718,31.19726 -7.40302,5.81665 -11.10547,14.80751 -11.10547,23.79688 0,6.87423 2.11593,13.7478 6.875,19.56445 6.34544,7.40302 14.80555,11.10352 23.79492,11.10352 6.87422,0 13.74975,-2.11397 19.56641,-6.87305 11.10452,-8.98937 31.19709,-17.97852 51.29101,-17.97852 8.98927,0 18.50763,2.11541 26.43945,6.34571 5.28785,3.17272 8.98977,12.16049 10.57618,20.62109 -7.40298,-1.05758 -14.27706,-1.05664 -20.09375,-1.05664 -7.93182,0 -15.33576,0.5293 -23.26758,0.5293 -57.10891,2.11515 -82.49026,21.15007 -94.65235,37.01367 -8.98937,11.6333 -13.74804,25.91077 -13.74804,40.7168 0,5.81665 0.52888,11.63452 2.11523,17.45117 9.51817,40.18778 40.71719,62.92383 85.66406,62.92383 16.39237,0 29.08222,-3.17238 33.3125,-3.70118 13.21966,-2.64393 25.38181,-6.87278 36.48633,-12.68945 4.759,10.04695 15.334,16.91992 27.4961,16.91992 16.92109,0 30.66992,-14.27754 30.66992,-30.66992 l -0.52735,-33.8418 v -83.01953 c 0,-5.81666 -1.58765,-61.33937 -43.89062,-85.13476 -16.39237,-8.98938 -36.48524,-13.74805 -57.63672,-13.74805 z m 652.91995,0 c -4.7591,0 -8.9891,5.2e-4 -13.7481,0.5293 -28.5545,2.64395 -54.4658,13.7473 -75.6172,31.19726 -7.4031,5.81665 -11.1035,14.80751 -11.1035,23.79688 0,6.87423 2.1141,13.7478 6.8731,19.56445 6.3455,7.40302 14.8055,11.10352 23.7949,11.10352 6.8742,0 13.7497,-2.11397 19.5664,-6.87305 11.1045,-8.98937 31.1971,-17.97852 51.291,-17.97852 8.9894,0 18.5077,2.11541 26.4395,6.34571 5.2879,3.17272 8.9897,12.16049 10.5761,20.62109 -7.4031,-1.05758 -14.277,-1.05664 -20.0937,-1.05664 -7.9318,0 -15.3338,0.5293 -23.2656,0.5293 -57.109,2.11515 -82.4922,21.15007 -94.6543,37.01367 -8.9894,11.6333 -13.7481,25.91077 -13.7481,40.7168 0,5.81665 0.5288,11.63452 2.1153,17.45117 9.5181,40.18778 40.7172,62.92383 85.664,62.92383 16.3925,0 29.0822,-3.17238 33.3125,-3.70118 13.2197,-2.64393 25.3818,-6.87278 36.4863,-12.68945 4.7591,10.04695 15.336,16.91992 27.4981,16.91992 16.9212,0 30.6699,-14.27754 30.6699,-30.66992 l -0.5293,-33.8418 v -83.01953 c 0,-5.81666 -1.5857,-61.33937 -43.8887,-85.13476 -16.3924,-8.98938 -36.4871,-13.74805 -57.6386,-13.74805 z m -870.73636,60.81055 c 17.44996,0 31.72641,10.04656 39.65821,25.91015 h -76.67383 c 8.46058,-15.33481 22.2096,-25.91015 37.01562,-25.91015 z m 1351.84566,0 c 17.4499,0 31.7265,10.04656 39.6583,25.91015 h -76.6739 c 8.4607,-15.33481 22.2095,-25.91015 37.0156,-25.91015 z m -243.7285,0.52929 c 34.3712,0 61.8692,27.49607 61.8692,61.86719 0,33.84234 -27.498,61.33985 -61.8692,61.33985 -33.8423,0 -61.3379,-27.49751 -61.3379,-61.33985 0,-34.37112 27.4956,-61.86719 61.3379,-61.86719 z m -872.32223,87.77735 c 8.46066,0 14.27697,0.52979 17.97851,1.05859 l -2.64453,6.3457 c -5.28784,9.51816 -17.44859,21.15006 -37.01367,24.85157 -0.52884,0 -1.05767,5e-4 -2.11524,0.52929 -2.64397,0.52878 -10.57563,2.11524 -20.09375,2.11524 -22.20905,0 -24.3257,-8.98855 -25.91211,-15.33399 0,-1.05758 -0.52734,-2.11574 -0.52734,-2.64453 0,-2.11515 1.0571,-3.17289 1.58594,-4.23047 3.70144,-4.75908 17.44925,-11.10452 41.77344,-12.16211 12.69082,-0.52877 20.0945,-0.52929 26.96875,-0.52929 z m 652.91993,0 c 8.4606,0 14.2769,0.52979 17.9785,1.05859 l -2.6426,6.3457 c -5.2878,9.51816 -17.4504,21.15006 -37.0156,24.85157 -0.5287,0 -1.0577,5e-4 -2.1152,0.52929 -2.6439,0.52878 -10.5756,2.11524 -20.0938,2.11524 -22.209,0 -24.3238,-8.98855 -25.9101,-15.33399 0,-1.05758 -0.5293,-2.11574 -0.5293,-2.64453 0,-2.11515 1.0571,-3.17289 1.5859,-4.23047 3.7015,-4.75908 17.4493,-11.10452 41.7734,-12.16211 12.691,-0.52877 20.0946,-0.52929 26.9688,-0.52929 z" />
  </g>
</svg>
